<svg width="21" height="18" viewBox="0 0 21 18" fill="none" xmlns="http://www.w3.org/2000/svg">
<path d="M17.668 0.500122H16.701C16.3761 0.50178 16.0587 0.598337 15.788 0.777954C15.5172 0.957571 15.3049 1.2124 15.177 1.51111H15.172L15.15 1.5751C15.137 1.6061 15.127 1.63811 15.116 1.67511L11.198 12.7751C11.1843 12.8164 11.158 12.8524 11.1227 12.8778C11.0874 12.9033 11.045 12.917 11.0015 12.917C10.958 12.917 10.9156 12.9033 10.8803 12.8778C10.845 12.8524 10.8187 12.8164 10.805 12.7751L6.82997 1.50812L6.81697 1.50012C6.68907 1.20355 6.47764 0.950612 6.20844 0.772156C5.93925 0.5937 5.62394 0.497439 5.30097 0.495117H1.21101C1.18264 0.495379 1.15459 0.501232 1.12849 0.512329C1.10238 0.523426 1.07872 0.539541 1.05885 0.559784C1.03898 0.580027 1.02326 0.604003 1.01264 0.63031C1.00203 0.656617 0.996694 0.684738 0.996958 0.713104V17.2761C0.996694 17.3045 1.00203 17.3326 1.01264 17.3589C1.02326 17.3852 1.03898 17.4092 1.05885 17.4294C1.07872 17.4497 1.10238 17.4658 1.12849 17.4769C1.15459 17.488 1.18264 17.4938 1.21101 17.4941H4.11701C4.14538 17.4938 4.17337 17.488 4.19947 17.4769C4.22558 17.4658 4.24924 17.4497 4.26911 17.4294C4.28899 17.4092 4.3047 17.3852 4.31532 17.3589C4.32593 17.3326 4.33127 17.3045 4.331 17.2761V5.0531C4.33053 5.01499 4.34014 4.97745 4.35896 4.94431C4.37777 4.91116 4.40509 4.8836 4.43806 4.86447C4.47103 4.84534 4.50852 4.8353 4.54664 4.83542C4.58476 4.83553 4.62212 4.84578 4.65498 4.86511C4.82159 4.96579 4.94839 5.12083 5.01399 5.30411L8.85597 16.2041L8.86097 16.2211C8.94862 16.5843 9.15519 16.9078 9.44782 17.1401C9.74046 17.3724 10.1023 17.5002 10.476 17.5031H11.519C11.8927 17.5007 12.2549 17.3731 12.5476 17.1407C12.8404 16.9083 13.0468 16.5846 13.134 16.2211C13.134 16.2151 13.134 16.2101 13.139 16.2041L16.972 5.3331C16.9758 5.32793 16.9789 5.3222 16.981 5.3161C17.0453 5.13112 17.1719 4.9742 17.339 4.8721C17.3719 4.85252 17.4094 4.84207 17.4476 4.84183C17.4859 4.84158 17.5235 4.85157 17.5567 4.87073C17.5898 4.88989 17.6172 4.91754 17.6361 4.95084C17.6549 4.98413 17.6646 5.02186 17.664 5.06012V17.2861C17.6637 17.3145 17.669 17.3426 17.6796 17.3689C17.6902 17.3952 17.706 17.4192 17.7258 17.4394C17.7457 17.4597 17.7694 17.4758 17.7955 17.4869C17.8216 17.498 17.8496 17.5039 17.878 17.5041H20.784C20.8124 17.5039 20.8404 17.498 20.8665 17.4869C20.8926 17.4758 20.9162 17.4597 20.9361 17.4394C20.956 17.4192 20.9717 17.3952 20.9823 17.3689C20.9929 17.3426 20.9983 17.3145 20.998 17.2861V0.720123C20.9983 0.691757 20.9929 0.663606 20.9823 0.637299C20.9717 0.610991 20.956 0.587016 20.9361 0.566772C20.9162 0.546529 20.8926 0.530415 20.8665 0.519318C20.8404 0.50822 20.8124 0.502367 20.784 0.502106L17.668 0.500122Z" fill="#21CDA8"/>
</svg>
