<svg width="20" height="20" viewBox="0 0 20 20" fill="none" xmlns="http://www.w3.org/2000/svg">
<path fill-rule="evenodd" clip-rule="evenodd" d="M1.70698 14.2928C1.51838 14.1106 1.26578 14.0098 1.00358 14.0121C0.741382 14.0144 0.490569 14.1196 0.305161 14.305C0.119753 14.4904 0.0145843 14.7412 0.0123059 15.0034C0.0100274 15.2656 0.110822 15.5182 0.29298 15.7068L4.29298 19.7068C4.48051 19.8943 4.73482 19.9996 4.99998 19.9996C5.26514 19.9996 5.51945 19.8943 5.70698 19.7068L9.70698 15.7068C9.88914 15.5182 9.98993 15.2656 9.98765 15.0034C9.98538 14.7412 9.88021 14.4904 9.6948 14.305C9.50939 14.1196 9.25858 14.0144 8.99638 14.0121C8.73418 14.0098 8.48158 14.1106 8.29298 14.2928L5.99998 16.5858V4.99979C5.99998 4.73457 5.89462 4.48022 5.70709 4.29268C5.51955 4.10514 5.2652 3.99979 4.99998 3.99979C4.73476 3.99979 4.48041 4.10514 4.29287 4.29268C4.10534 4.48022 3.99998 4.73457 3.99998 4.99979V16.5858L1.70698 14.2928ZM11.707 5.70679C11.5184 5.88894 11.2658 5.98974 11.0036 5.98746C10.7414 5.98518 10.4906 5.88001 10.3052 5.6946C10.1198 5.5092 10.0146 5.25838 10.0123 4.99619C10.01 4.73399 10.1108 4.48139 10.293 4.29279L14.293 0.292786C14.4805 0.105315 14.7348 0 15 0C15.2651 0 15.5195 0.105315 15.707 0.292786L19.707 4.29279C19.8891 4.48139 19.9899 4.73399 19.9877 4.99619C19.9854 5.25838 19.8802 5.5092 19.6948 5.6946C19.5094 5.88001 19.2586 5.98518 18.9964 5.98746C18.7342 5.98974 18.4816 5.88894 18.293 5.70679L16 3.41379V14.9998C16 15.265 15.8946 15.5194 15.7071 15.7069C15.5196 15.8944 15.2652 15.9998 15 15.9998C14.7348 15.9998 14.4804 15.8944 14.2929 15.7069C14.1053 15.5194 14 15.265 14 14.9998V3.41379L11.707 5.70679Z" fill="#F5F5F7" fill-opacity="0.6"/>
</svg>
