<svg width="18" height="18" viewBox="0 0 18 18" fill="none" xmlns="http://www.w3.org/2000/svg">
<path fill-rule="evenodd" clip-rule="evenodd" d="M14.032 0H13.968C13.529 0 13.151 -9.12696e-08 12.838 0.0209999C12.5002 0.0352129 12.167 0.105155 11.852 0.228C11.4879 0.378766 11.1571 0.599788 10.8784 0.878439C10.5998 1.15709 10.3788 1.48791 10.228 1.852C10.1052 2.16702 10.0352 2.50017 10.021 2.838C10 3.151 10 3.529 10 3.968V4.032C10 4.471 10 4.849 10.021 5.162C10.0352 5.49983 10.1052 5.83298 10.228 6.148C10.3788 6.51209 10.5998 6.84291 10.8784 7.12156C11.1571 7.40021 11.4879 7.62123 11.852 7.772C12.167 7.89479 12.5002 7.96473 12.838 7.979C13.151 8 13.53 8 13.968 8H14.032C14.471 8 14.849 8 15.162 7.979C15.4998 7.96471 15.833 7.89477 16.148 7.772C16.5121 7.62123 16.8429 7.40021 17.1216 7.12156C17.4002 6.84291 17.6212 6.51209 17.772 6.148C17.8948 5.83296 17.9647 5.49982 17.979 5.162C18 4.849 18 4.471 18 4.032V3.968C18 3.529 18 3.151 17.979 2.838C17.9647 2.50018 17.8948 2.16704 17.772 1.852C17.6212 1.48791 17.4002 1.15709 17.1216 0.878439C16.8429 0.599788 16.5121 0.378766 16.148 0.228C15.833 0.105173 15.4998 0.0352312 15.162 0.0209999C14.849 -9.12696e-08 14.471 0 14.032 0ZM12.617 2.076C12.7319 2.0379 12.852 2.01799 12.973 2.017C13.211 2 13.52 2 14 2C14.48 2 14.789 2 15.026 2.017C15.1474 2.01789 15.2678 2.0378 15.383 2.076C15.6279 2.17749 15.8225 2.37208 15.924 2.617C15.9621 2.73187 15.982 2.85199 15.983 2.973C16 3.211 16 3.52 16 4C16 4.48 16 4.789 15.983 5.026C15.982 5.14701 15.9621 5.26713 15.924 5.382C15.8225 5.62692 15.6279 5.82151 15.383 5.923C15.2678 5.96122 15.1474 5.98113 15.026 5.982C14.789 6 14.48 6 14 6C13.52 6 13.211 6 12.974 5.983C12.853 5.98202 12.7329 5.96212 12.618 5.924C12.3731 5.82251 12.1785 5.62792 12.077 5.383C12.0389 5.26813 12.019 5.14801 12.018 5.027C12 4.789 12 4.48 12 4C12 3.52 12 3.211 12.017 2.974C12.018 2.85299 12.0379 2.73287 12.076 2.618C12.1261 2.49654 12.1997 2.38616 12.2926 2.29316C12.3854 2.20016 12.4956 2.12637 12.617 2.076Z" fill="#F5F5F7" fill-opacity="0.6"/>
<path fill-rule="evenodd" clip-rule="evenodd" d="M3.968 10H4.032C4.471 10 4.849 10 5.162 10.021C5.49983 10.0352 5.83298 10.1052 6.148 10.228C6.51209 10.3788 6.84291 10.5998 7.12156 10.8784C7.40021 11.1571 7.62123 11.4879 7.772 11.852C7.89479 12.167 7.96473 12.5002 7.979 12.838C8 13.151 8 13.53 8 13.968V14.032C8 14.471 8 14.849 7.979 15.162C7.96471 15.4998 7.89477 15.833 7.772 16.148C7.62123 16.5121 7.40021 16.8429 7.12156 17.1216C6.84291 17.4002 6.51209 17.6212 6.148 17.772C5.83296 17.8948 5.49982 17.9647 5.162 17.979C4.849 18 4.471 18 4.032 18H3.968C3.529 18 3.151 18 2.838 17.979C2.50018 17.9647 2.16704 17.8948 1.852 17.772C1.48791 17.6212 1.15709 17.4002 0.878439 17.1216C0.599788 16.8429 0.378766 16.5121 0.228 16.148C0.105173 15.833 0.0352312 15.4998 0.0209999 15.162C-9.12696e-08 14.849 0 14.471 0 14.032V13.968C0 13.529 -9.12696e-08 13.151 0.0209999 12.838C0.0352129 12.5002 0.105155 12.167 0.228 11.852C0.378766 11.4879 0.599788 11.1571 0.878439 10.8784C1.15709 10.5998 1.48791 10.3788 1.852 10.228C2.16702 10.1052 2.50017 10.0352 2.838 10.021C3.151 10 3.529 10 3.968 10ZM2.974 12.017C2.85299 12.018 2.73287 12.0379 2.618 12.076C2.37308 12.1775 2.17849 12.3721 2.077 12.617C2.0389 12.7319 2.01899 12.852 2.018 12.973C2 13.211 2 13.52 2 14C2 14.48 2 14.789 2.017 15.026C2.01789 15.1474 2.0378 15.2678 2.076 15.383C2.17749 15.6279 2.37208 15.8225 2.617 15.924C2.73187 15.9621 2.85199 15.982 2.973 15.983C3.211 16 3.52 16 4 16C4.48 16 4.789 16 5.026 15.983C5.14701 15.982 5.26713 15.9621 5.382 15.924C5.62692 15.8225 5.82151 15.6279 5.923 15.383C5.96122 15.2678 5.98113 15.1474 5.982 15.026C6 14.789 6 14.48 6 14C6 13.52 6 13.211 5.983 12.974C5.98202 12.853 5.96212 12.7329 5.924 12.618C5.82251 12.3731 5.62792 12.1785 5.383 12.077C5.26813 12.0389 5.14801 12.019 5.027 12.018C4.789 12 4.48 12 4 12C3.52 12 3.211 12 2.974 12.017Z" fill="#F5F5F7" fill-opacity="0.6"/>
<path fill-rule="evenodd" clip-rule="evenodd" d="M13.968 10H14.032C14.471 10 14.849 10 15.162 10.021C15.4998 10.0352 15.833 10.1052 16.148 10.228C16.5121 10.3788 16.8429 10.5998 17.1216 10.8784C17.4002 11.1571 17.6212 11.4879 17.772 11.852C17.8948 12.167 17.9647 12.5002 17.979 12.838C18 13.151 18 13.53 18 13.968V14.032C18 14.471 18 14.849 17.979 15.162C17.9647 15.4998 17.8948 15.833 17.772 16.148C17.6212 16.5121 17.4002 16.8429 17.1216 17.1216C16.8429 17.4002 16.5121 17.6212 16.148 17.772C15.833 17.8948 15.4998 17.9647 15.162 17.979C14.849 18 14.47 18 14.032 18H13.968C13.529 18 13.151 18 12.838 17.979C12.5002 17.9647 12.167 17.8948 11.852 17.772C11.4879 17.6212 11.1571 17.4002 10.8784 17.1216C10.5998 16.8429 10.3788 16.5121 10.228 16.148C10.1052 15.833 10.0352 15.4998 10.021 15.162C10 14.849 10 14.471 10 14.032V13.968C10 13.529 10 13.151 10.021 12.838C10.0352 12.5002 10.1052 12.167 10.228 11.852C10.3788 11.4879 10.5998 11.1571 10.8784 10.8784C11.1571 10.5998 11.4879 10.3788 11.852 10.228C12.167 10.1052 12.5002 10.0352 12.838 10.021C13.151 10 13.529 10 13.968 10ZM12.974 12.017C12.853 12.018 12.7329 12.0379 12.618 12.076C12.3731 12.1775 12.1785 12.3721 12.077 12.617C12.0389 12.7319 12.019 12.852 12.018 12.973C12 13.211 12 13.52 12 14C12 14.48 12 14.789 12.017 15.026C12.0179 15.1473 12.0378 15.2678 12.076 15.383C12.1775 15.6279 12.3721 15.8225 12.617 15.924C12.7319 15.9621 12.852 15.982 12.973 15.983C13.211 16 13.52 16 14 16C14.48 16 14.789 16 15.026 15.983C15.1473 15.9821 15.2678 15.9622 15.383 15.924C15.6279 15.8225 15.8225 15.6279 15.924 15.383C15.9622 15.2678 15.9821 15.1473 15.983 15.026C16 14.789 16 14.48 16 14C16 13.52 16 13.211 15.983 12.974C15.982 12.853 15.9621 12.7329 15.924 12.618C15.8225 12.3731 15.6279 12.1785 15.383 12.077C15.2678 12.0388 15.1473 12.0189 15.026 12.018C14.789 12 14.48 12 14 12C13.52 12 13.211 12 12.974 12.017Z" fill="#F5F5F7" fill-opacity="0.6"/>
<path fill-rule="evenodd" clip-rule="evenodd" d="M3.968 0H4.032C4.471 0 4.849 -9.12696e-08 5.162 0.0209999C5.49983 0.0352129 5.83298 0.105155 6.148 0.228C6.51209 0.378766 6.84291 0.599788 7.12156 0.878439C7.40021 1.15709 7.62123 1.48791 7.772 1.852C7.89479 2.16704 7.96473 2.50018 7.979 2.838C8 3.151 8 3.53 8 3.968V4.032C8 4.471 8 4.849 7.979 5.162C7.96473 5.49982 7.89479 5.83296 7.772 6.148C7.62123 6.51209 7.40021 6.84291 7.12156 7.12156C6.84291 7.40021 6.51209 7.62123 6.148 7.772C5.83296 7.89479 5.49982 7.96473 5.162 7.979C4.849 8 4.471 8 4.032 8H3.968C3.529 8 3.151 8 2.838 7.979C2.50018 7.96473 2.16704 7.89479 1.852 7.772C1.48791 7.62123 1.15709 7.40021 0.878439 7.12156C0.599788 6.84291 0.378766 6.51209 0.228 6.148C0.105155 5.83298 0.0352129 5.49983 0.0209999 5.162C-9.12696e-08 4.849 0 4.471 0 4.032V3.968C0 3.529 -9.12696e-08 3.151 0.0209999 2.838C0.0352129 2.50017 0.105155 2.16702 0.228 1.852C0.378766 1.48791 0.599788 1.15709 0.878439 0.878439C1.15709 0.599788 1.48791 0.378766 1.852 0.228C2.16702 0.105155 2.50017 0.0352129 2.838 0.0209999C3.151 -9.12696e-08 3.529 0 3.968 0ZM2.974 2.017C2.85298 2.01798 2.73286 2.03788 2.618 2.076C2.37308 2.17749 2.17849 2.37208 2.077 2.617C2.03888 2.73186 2.01898 2.85198 2.018 2.973C2 3.211 2 3.52 2 4C2 4.48 2 4.789 2.017 5.026C2.01798 5.14702 2.03788 5.26714 2.076 5.382C2.17749 5.62692 2.37208 5.82151 2.617 5.923C2.73186 5.96112 2.85198 5.98102 2.973 5.982C3.211 6 3.52 6 4 6C4.48 6 4.789 6 5.026 5.983C5.14702 5.98202 5.26714 5.96212 5.382 5.924C5.62692 5.82251 5.82151 5.62792 5.923 5.383C5.96112 5.26814 5.98102 5.14802 5.982 5.027C6 4.789 6 4.48 6 4C6 3.52 6 3.211 5.983 2.974C5.98202 2.85298 5.96212 2.73286 5.924 2.618C5.82251 2.37308 5.62792 2.17849 5.383 2.077C5.26814 2.03888 5.14802 2.01898 5.027 2.018C4.789 2 4.48 2 4 2C3.52 2 3.211 2 2.974 2.017Z" fill="#F5F5F7" fill-opacity="0.6"/>
</svg>
